<svg width="25" height="22" viewBox="0 0 25 22" fill="none" xmlns="http://www.w3.org/2000/svg">
<path d="M23.2143 6.70312C23.2143 5.92969 23.1143 5.24696 22.9143 4.65495C22.7144 4.06293 22.4586 3.59266 22.147 3.24414C21.8355 2.89562 21.4565 2.61155 21.01 2.39193C20.5636 2.17231 20.1265 2.02431 19.6987 1.94792C19.2708 1.87153 18.8151 1.83333 18.3315 1.83333C17.8478 1.83333 17.327 1.95508 16.769 2.19857C16.2109 2.44206 15.6971 2.74761 15.2274 3.11523C14.7577 3.48286 14.3555 3.82661 14.0206 4.14648C13.6858 4.46636 13.4068 4.75998 13.1836 5.02734C13.0162 5.23741 12.7883 5.34245 12.5 5.34245C12.2117 5.34245 11.9838 5.23741 11.8164 5.02734C11.5932 4.75998 11.3142 4.46636 10.9794 4.14648C10.6445 3.82661 10.2423 3.48286 9.7726 3.11523C9.30292 2.74761 8.78906 2.44206 8.23103 2.19857C7.67299 1.95508 7.15216 1.83333 6.66853 1.83333C6.1849 1.83333 5.72917 1.87153 5.30134 1.94792C4.87351 2.02431 4.43638 2.17231 3.98996 2.39193C3.54353 2.61155 3.16453 2.89562 2.85296 3.24414C2.54139 3.59266 2.28562 4.06293 2.08566 4.65495C1.8857 5.24696 1.78571 5.92969 1.78571 6.70312C1.78571 8.30729 2.65532 10.0022 4.39453 11.7878L12.5 19.8086L20.5915 11.8021C22.34 10.0069 23.2143 8.30729 23.2143 6.70312ZM25 6.70312C25 8.81337 23.9351 10.9618 21.8052 13.1484L13.1138 21.7422C12.9464 21.9141 12.7418 22 12.5 22C12.2582 22 12.0536 21.9141 11.8862 21.7422L3.1808 13.1198C3.0878 13.0434 2.95991 12.9193 2.79715 12.7474C2.63439 12.5755 2.3763 12.2628 2.02288 11.8092C1.66946 11.3557 1.35324 10.8902 1.07422 10.4128C0.795201 9.93533 0.54641 9.35764 0.327846 8.67969C0.109282 8.00174 0 7.34288 0 6.70312C0 4.60243 0.590588 2.96007 1.77176 1.77604C2.95294 0.592014 4.58519 0 6.66853 0C7.24516 0 7.83343 0.102648 8.43332 0.307943C9.0332 0.513238 9.59124 0.790148 10.1074 1.13867C10.6236 1.4872 11.0677 1.81424 11.4397 2.11979C11.8118 2.42535 12.1652 2.75 12.5 3.09375C12.8348 2.75 13.1882 2.42535 13.5603 2.11979C13.9323 1.81424 14.3764 1.4872 14.8926 1.13867C15.4088 0.790148 15.9668 0.513238 16.5667 0.307943C17.1666 0.102648 17.7548 0 18.3315 0C20.4148 0 22.0471 0.592014 23.2282 1.77604C24.4094 2.96007 25 4.60243 25 6.70312Z" fill="black"/>
</svg>
