<svg width="25" height="22" viewBox="0 0 25 22" fill="none" xmlns="http://www.w3.org/2000/svg">
<path d="M2.73438 1.83329L7.42188 0.916626L12.1094 3.97218L17.5781 0.916626L23.0469 2.74996L23.8281 9.47218C23.8281 9.47218 21.0938 13.1388 16.7969 17.1111C12.5 21.0833 12.1094 20.1666 12.1094 20.1666L1.5625 9.16663L0.78125 5.80551L2.73438 1.83329Z" fill="#DC4021"/>
<path d="M18.3311 0.5C20.3159 0.5 21.8085 1.06097 22.874 2.12891C23.9392 3.19662 24.5 4.69909 24.5 6.70312C24.5 8.63256 23.5289 10.6606 21.4541 12.793L12.7627 21.3867L12.7559 21.3936C12.6834 21.4679 12.6081 21.5 12.5 21.5C12.3919 21.5 12.3166 21.4679 12.2441 21.3936L12.2383 21.3867L3.53223 12.7646L3.5166 12.748L3.49805 12.7334C3.42995 12.6775 3.31942 12.5715 3.16016 12.4033C3.01569 12.2507 2.77037 11.9555 2.41699 11.502C2.0767 11.0652 1.77322 10.6176 1.50586 10.1602C1.24953 9.72149 1.01412 9.179 0.803711 8.52637C0.599334 7.89242 0.5 7.28526 0.5 6.70312C0.5 4.69909 1.06084 3.19662 2.12598 2.12891C3.19148 1.06097 4.68406 0.5 6.66895 0.5C7.18517 0.500049 7.71869 0.592073 8.27148 0.78125C8.83018 0.97246 9.34834 1.2295 9.82715 1.55273C10.3338 1.89479 10.7651 2.21268 11.1221 2.50586C11.4798 2.79964 11.8198 3.11201 12.1416 3.44238L12.5 3.81055L12.8584 3.44238C13.1802 3.11201 13.5202 2.79964 13.8779 2.50586C14.2349 2.21268 14.6662 1.89479 15.1729 1.55273C15.6517 1.2295 16.1698 0.97246 16.7285 0.78125C17.2813 0.592073 17.8148 0.50005 18.3311 0.5ZM18.3311 1.33301C17.7635 1.33308 17.1744 1.47626 16.5693 1.74023C15.9735 2.00024 15.4225 2.32753 14.9189 2.72168C14.4399 3.09663 14.0242 3.45132 13.6748 3.78516C13.3307 4.11394 13.0381 4.42156 12.7998 4.70703L12.793 4.71582C12.7281 4.79716 12.6489 4.84277 12.5 4.84277C12.3513 4.84277 12.2728 4.79695 12.208 4.71582L12.2002 4.70703L12.0117 4.48828C11.8127 4.266 11.5833 4.03173 11.3252 3.78516C10.9758 3.45132 10.5601 3.09663 10.0811 2.72168C9.57748 2.32753 9.02654 2.00024 8.43066 1.74023C7.82559 1.47626 7.23652 1.33308 6.66895 1.33301C6.15922 1.33301 5.67364 1.37399 5.21387 1.45605C4.73391 1.54175 4.25196 1.70605 3.76953 1.94336C3.26923 2.18948 2.83754 2.51172 2.48047 2.91113C2.11149 3.32387 1.82699 3.8595 1.6123 4.49512C1.39137 5.14925 1.28613 5.88772 1.28613 6.70312C1.28613 8.49396 2.2549 10.308 4.03613 12.1367L4.04297 12.1436L12.1484 20.1641L12.5 20.5117L12.8516 20.1641L20.9434 12.1572L20.9492 12.1514C22.7392 10.3137 23.7139 8.49456 23.7139 6.70312C23.7139 5.88772 23.6086 5.14925 23.3877 4.49512C23.173 3.8595 22.8885 3.32387 22.5195 2.91113C22.1625 2.51172 21.7308 2.18948 21.2305 1.94336C20.748 1.70605 20.2661 1.54175 19.7861 1.45605C19.3264 1.37399 18.8408 1.33301 18.3311 1.33301Z" fill="black" stroke="black"/>
</svg>
